<svg width="249" height="249" viewBox="0 0 249 249" fill="none" xmlns="http://www.w3.org/2000/svg">
<mask id="mask0_42_2" style="mask-type:alpha" maskUnits="userSpaceOnUse" x="0" y="0" width="249" height="249">
<path d="M0 124.5C0 55.7406 55.7406 0 124.5 0V0C193.259 0 249 55.7406 249 124.5V124.5C249 193.259 193.259 249 124.5 249V249C55.7406 249 0 193.259 0 124.5V124.5Z" fill="black"/>
</mask>
<g mask="url(#mask0_42_2)">
<rect x="-31" y="-22" width="350" height="308" fill="white"/>
<circle id="yellow-circle" cx="235.5" cy="104.5" r="77.5" fill="#FFE600"/>
<circle id="red-circle" cx="17.5" cy="215.5" r="68.5" fill="#FFA800"/>
<path d="M211.857 115.176C211.802 114.601 211.692 114.048 211.461 113.504C211.337 113.211 211.171 112.966 211.002 112.698C210.843 112.445 210.766 112.161 210.563 111.93L171.624 67.4279V40.7669C171.624 38.9564 170.773 37.2528 169.332 36.1637C167.884 35.0769 166.004 34.7222 164.275 35.2232L83.5478 58.2883C81.0704 58.9947 79.3638 61.2584 79.3638 63.832V89.3178L41.9056 110.722C41.8722 110.742 41.8548 110.777 41.8196 110.797C41.7647 110.83 41.7014 110.845 41.6465 110.88C41.1299 111.212 40.7048 111.639 40.3262 112.102C40.2289 112.221 40.1507 112.342 40.0629 112.469C39.7154 112.97 39.4335 113.509 39.2592 114.096C39.2436 114.148 39.2138 114.193 39.2 114.246C39.0734 114.725 39 115.22 39 115.727V306.013C39 308.274 40.3232 310.326 42.3785 311.261L105.807 340.092C105.886 340.127 105.973 340.113 106.052 340.146C106.737 340.423 107.452 340.727 108.194 340.727C108.742 340.727 109.285 340.61 109.812 340.61H109.821L207.847 311.662C210.303 310.939 211.986 308.572 211.986 306.013V115.727C211.987 115.534 211.876 115.367 211.857 115.176ZM90.8966 68.182L160.091 48.4113V65.2496L90.8966 85.0197V68.182ZM82.4497 100.834L96.7586 133.027L57.4129 115.142L82.4497 100.834ZM102.429 325.889L50.5328 302.3V124.684L102.429 148.273V325.889ZM93.0952 96.3842L163.926 76.1477L195.941 112.741L111.414 137.602L93.0952 96.3842ZM200.455 301.7L113.962 327.139V148.873L200.455 123.434V301.7Z" fill="#2B2B2B"/>
</g>
</svg>
