<svg width="72" height="94" viewBox="0 0 72 94" fill="none" xmlns="http://www.w3.org/2000/svg">
<path d="M71.9459 34.2636C71.923 34.024 71.8773 33.7939 71.7814 33.5675C71.7297 33.4458 71.6606 33.3436 71.5903 33.2321C71.5242 33.1269 71.4918 33.0089 71.4073 32.9125L55.2002 14.393V3.29797C55.2002 2.54454 54.8463 1.83558 54.2464 1.38233C53.6439 0.930073 52.8613 0.782467 52.1415 0.990954L18.5416 10.5895C17.5104 10.8835 16.8001 11.8255 16.8001 12.8965V23.5025L1.20936 32.41C1.19544 32.4182 1.18824 32.4329 1.17357 32.4411C1.15071 32.455 1.12436 32.461 1.1015 32.4756C0.886518 32.6138 0.709563 32.7915 0.551993 32.9841C0.511482 33.0338 0.478923 33.0842 0.442389 33.1369C0.297743 33.3454 0.180435 33.5698 0.107863 33.814C0.101401 33.8356 0.0889747 33.8543 0.0832585 33.8764C0.0305694 34.0757 0 34.2817 0 34.4929L0.000170296 79.4201C0.000170296 80.3609 0.550919 81.2152 1.40637 81.6041L27.8063 93.6022C27.8391 93.6168 27.8754 93.6109 27.9082 93.6245C28.1935 93.7398 28.4913 93.8663 28.8 93.8663C29.0279 93.8663 29.254 93.8178 29.4732 93.8178H29.4772L70.2774 81.7711C71.2994 81.4699 72 80.4852 72 79.4201L71.9998 34.4929C72.0003 34.4124 71.9541 34.3428 71.9459 34.2636ZM21.6003 14.7068L50.4003 6.47919V13.4865L21.6003 21.7139V14.7068ZM18.0845 28.295L24.0401 41.6923L7.66377 34.2494L18.0845 28.295ZM26.4004 87.6915L4.80034 77.875L4.80017 38.2203L26.4002 48.0368L26.4004 87.6915ZM22.5154 26.4432L51.9964 18.0217L65.3217 33.2499L30.1401 43.596L22.5154 26.4432ZM67.2006 77.6255L31.2005 88.2118L31.2004 48.2863L67.2004 37.7L67.2006 77.6255Z" fill="#2B2B2B"/>
</svg>
