<svg width="249" height="249" viewBox="0 0 249 249" fill="none" xmlns="http://www.w3.org/2000/svg">
<mask id="mask0_46_22" style="mask-type:alpha" maskUnits="userSpaceOnUse" x="0" y="0" width="249" height="249">
<path d="M0 124.5C0 55.7406 55.7406 0 124.5 0V0C193.259 0 249 55.7406 249 124.5V124.5C249 193.259 193.259 249 124.5 249V249C55.7406 249 0 193.259 0 124.5V124.5Z" fill="black"/>
</mask>
<g mask="url(#mask0_46_22)">
<circle cx="98" cy="124" r="180" fill="#FFA800"/>
<path d="M165.447 29V61.4376L203.213 106.106L208 242.769L103.213 255L33 242.769L38.3191 106.106L76.0851 87.4941L79.8085 51.3341L165.447 29Z" fill="white"/>
<path d="M212.862 109.231C212.804 108.619 212.728 108.027 212.483 107.449C212.351 107.138 212.133 106.881 211.953 106.596C211.784 106.327 211.702 106.026 211.486 105.779L170.068 58.4722V30.1304C170.068 28.2058 169.163 26.3948 167.63 25.237C166.09 24.0817 164.09 23.7047 162.251 24.2373L76.3842 48.7564C73.7489 49.5073 71.9337 51.9137 71.9337 54.6496V81.7421L32.0906 104.496C32.055 104.517 32.0366 104.554 31.9992 104.575C31.9407 104.611 31.8734 104.626 31.815 104.664C31.2656 105.016 30.8134 105.47 30.4107 105.962C30.3071 106.089 30.2239 106.218 30.1306 106.353C29.7609 106.885 29.4611 107.458 29.2757 108.082C29.2591 108.138 29.2274 108.185 29.2128 108.242C29.0781 108.751 29 109.277 29 109.817V312.098C29 314.501 30.4075 316.683 32.5936 317.677L100.06 348.325C100.144 348.363 100.237 348.347 100.321 348.382C101.05 348.677 101.811 349 102.6 349C103.182 349 103.76 348.876 104.32 348.876H104.33L208.598 318.103C211.21 317.334 213 314.818 213 312.098V109.817C213.001 109.611 212.883 109.433 212.862 109.231ZM84.2008 59.2739L157.801 38.2567V56.1565L84.2008 77.173V59.2739ZM75.2161 93.9842L90.436 128.207L48.5853 109.195L75.2161 93.9842ZM96.4673 333.227L41.2672 308.151V119.338L96.4673 144.414V333.227ZM86.5394 89.2539L161.88 67.7417L195.934 106.641L106.025 133.07L86.5394 89.2539ZM200.735 307.514L108.734 334.556V145.051L200.735 118.009V307.514Z" fill="#2B2B2B"/>
</g>
</svg>
