<svg width="249" height="249" viewBox="0 0 249 249" fill="none" xmlns="http://www.w3.org/2000/svg">
<mask id="mask0_46_27" style="mask-type:alpha" maskUnits="userSpaceOnUse" x="0" y="0" width="249" height="249">
<path d="M0 124.5C0 55.7406 55.7406 0 124.5 0V0C193.259 0 249 55.7406 249 124.5V124.5C249 193.259 193.259 249 124.5 249V249C55.7406 249 0 193.259 0 124.5V124.5Z" fill="black"/>
</mask>
<g mask="url(#mask0_46_27)">
<path d="M308.3 190.906C308.3 233.708 273.602 268.406 230.8 268.406C223.073 268.406 215.609 267.275 208.567 265.17C205.219 243.879 205.219 208.681 205.219 173.606C204.608 159.106 211.27 142.791 203.288 127.791C211.576 119.268 193.758 121.734 205.219 117.727C213.228 114.928 221.836 113.406 230.8 113.406C273.602 113.406 308.3 148.104 308.3 190.906Z" fill="#FFE600"/>
<path d="M42.3785 217.5C42.3785 245.327 45.577 260.5 45.577 280C37.0088 283.855 27.5049 286 17.5 286C-20.3315 286 -51 255.331 -51 217.5C-51 179.668 -20.3315 149 17.5 149C27.5049 149 37.0088 151.145 45.577 155C45.577 230 42.3785 189.673 42.3785 217.5Z" fill="#FFA800"/>
<path d="M211.857 117.176C211.802 116.601 211.73 116.044 211.5 115.5C211.376 115.207 211.171 114.966 211.002 114.698C210.843 114.445 210.766 114.161 210.563 113.93L171.624 69.4279V42.7669C171.624 40.9564 170.773 39.2528 169.332 38.1637C167.884 37.0769 166.004 36.7222 164.275 37.2232L83.5478 60.2883C81.0704 60.9947 79.3638 63.2584 79.3638 65.832V91.3178L41.9056 112.722C41.8722 112.742 41.8548 112.777 41.8196 112.797C41.7647 112.83 41.7014 112.845 41.6465 112.88C41.1299 113.212 40.7048 113.639 40.3262 114.102C40.2289 114.221 40.1507 114.342 40.0629 114.469C39.7154 114.97 39.4335 115.509 39.2591 116.096C39.2436 116.148 39.2138 116.193 39.2 116.246C39.0734 116.725 39 117.22 39 117.727V308.013C39 310.274 40.3232 312.326 42.3785 313.261L105.807 342.092C105.886 342.127 105.973 342.113 106.052 342.146C106.737 342.423 107.452 342.727 108.194 342.727C108.742 342.727 109.285 342.61 109.812 342.61H109.821L207.847 313.662C210.303 312.939 211.986 310.572 211.986 308.013V117.727C211.987 117.534 211.876 117.367 211.857 117.176ZM90.8966 70.182L160.091 50.4113V67.2496L90.8966 87.0197V70.182ZM82.4497 102.834L96.7586 135.027L57.4129 117.142L82.4497 102.834ZM102.429 327.889L50.5328 304.3V126.684L102.429 150.273V327.889ZM93.0952 98.3842L163.926 78.1477L195.941 114.741L111.414 139.602L93.0952 98.3842ZM200.455 303.7L113.962 329.139V150.873L200.455 125.434V303.7Z" fill="#2B2B2B"/>
</g>
</svg>
