<svg width="271" height="271" viewBox="0 0 271 271" fill="none" xmlns="http://www.w3.org/2000/svg">
<mask id="mask0_75_9" style="mask-type:alpha" maskUnits="userSpaceOnUse" x="11" y="11" width="249" height="249">
<path d="M11 135.5C11 66.7405 66.7405 11 135.5 11C204.259 11 260 66.7405 260 135.5C260 204.259 204.259 260 135.5 260C66.7405 260 11 204.259 11 135.5Z" fill="black"/>
<path d="M11 135.5C11 66.7405 66.7405 11 135.5 11C204.259 11 260 66.7405 260 135.5C260 204.259 204.259 260 135.5 260C66.7405 260 11 204.259 11 135.5Z" stroke="#2B2B2B"/>
</mask>
<g mask="url(#mask0_75_9)">
<path d="M289 135C289 234.411 208.411 315 109 315C9.58875 315 -71 234.411 -71 135C-71 35.5887 9.58875 -45 109 -45C208.411 -45 289 35.5887 289 135Z" fill="#FFA800"/>
<path d="M289 135C289 234.411 208.411 315 109 315C9.58875 315 -71 234.411 -71 135C-71 35.5887 9.58875 -45 109 -45C208.411 -45 289 35.5887 289 135Z" stroke="#2B2B2B"/>
<path d="M176.447 40V72.4376L214.213 117.106L219 253.769L114.213 266L44 253.769L49.3191 117.106L87.0851 98.4941L90.8085 62.3341L176.447 40Z" fill="white"/>
<path d="M223.862 120.231C223.804 119.619 223.728 119.027 223.483 118.449C223.351 118.138 223.133 117.881 222.953 117.596C222.784 117.327 222.702 117.026 222.486 116.779L181.068 69.4722V41.1304C181.068 39.2058 180.163 37.3948 178.63 36.237C177.09 35.0817 175.09 34.7047 173.251 35.2373L87.3842 59.7564C84.7489 60.5073 82.9337 62.9137 82.9337 65.6496V92.7421L43.0906 115.496C43.055 115.517 43.0366 115.554 42.9992 115.575C42.9407 115.611 42.8734 115.626 42.815 115.664C42.2656 116.016 41.8134 116.47 41.4107 116.962C41.3071 117.089 41.2239 117.218 41.1306 117.353C40.7609 117.885 40.4611 118.458 40.2757 119.082C40.2591 119.138 40.2274 119.185 40.2128 119.242C40.0781 119.751 40 120.277 40 120.817V323.098C40 325.501 41.4075 327.683 43.5936 328.677L111.06 359.325C111.144 359.363 111.237 359.347 111.321 359.382C112.05 359.677 112.811 360 113.6 360C114.182 360 114.76 359.876 115.32 359.876H115.33L219.598 329.103C222.21 328.334 224 325.818 224 323.098V120.817C224.001 120.611 223.883 120.433 223.862 120.231ZM95.2008 70.2739L168.801 49.2567V67.1565L95.2008 88.173V70.2739ZM86.2161 104.984L101.436 139.207L59.5853 120.195L86.2161 104.984ZM107.467 344.227L52.2672 319.151V130.338L107.467 155.414V344.227ZM97.5394 100.254L172.88 78.7417L206.934 117.641L117.025 144.07L97.5394 100.254ZM211.735 318.514L119.734 345.556V156.051L211.735 129.009V318.514Z" fill="#2B2B2B"/>
</g>
<path d="M135.5 265.5C63.703 265.5 5.5 207.297 5.5 135.5C5.5 63.703 63.703 5.5 135.5 5.5C207.297 5.5 265.5 63.703 265.5 135.5C265.5 207.297 207.297 265.5 135.5 265.5Z" stroke="#2B2B2B" stroke-width="11"/>
</svg>
