<svg width="42" height="42" viewBox="0 0 42 42" fill="none" xmlns="http://www.w3.org/2000/svg">
<g clip-path="url(#clip0_35_124)">
<mask id="mask0_35_124" style="mask-type:alpha" maskUnits="userSpaceOnUse" x="1" y="1" width="40" height="40">
<path d="M36.4615 1.84616H5.53844C3.49923 1.84616 1.84613 3.49926 1.84613 5.53847V36.4615C1.84613 38.5008 3.49923 40.1539 5.53844 40.1539H36.4615C38.5007 40.1539 40.1538 38.5008 40.1538 36.4615V5.53847C40.1538 3.49926 38.5007 1.84616 36.4615 1.84616Z" fill="#E2E2E2"/>
</mask>
<g mask="url(#mask0_35_124)">
<path d="M40.2127 1.78725H1.78717V41.1064H40.2127V1.78725Z" fill="white"/>
<path d="M37.3077 33.0769C43.8926 33.0769 49.2307 27.7388 49.2307 21.1539C49.2307 14.5689 43.8926 9.23077 37.3077 9.23077C30.7227 9.23077 25.3846 14.5689 25.3846 21.1539C25.3846 27.7388 30.7227 33.0769 37.3077 33.0769Z" fill="#FFD600"/>
<path d="M6.99995 51.6923C12.8202 51.6923 17.5384 46.9741 17.5384 41.1538C17.5384 35.3336 12.8202 30.6154 6.99995 30.6154C1.17972 30.6154 -3.53851 35.3336 -3.53851 41.1538C-3.53851 46.9741 1.17972 51.6923 6.99995 51.6923Z" fill="#FF9900"/>
<path d="M35.2094 17.8782C35.2003 17.7829 35.182 17.6915 35.144 17.6015C35.1234 17.5531 35.096 17.5125 35.068 17.4682C35.0417 17.4263 35.0289 17.3794 34.9952 17.3411L28.554 9.9796V5.56934C28.554 5.26986 28.4134 4.98805 28.1749 4.80788C27.9354 4.62811 27.6244 4.56943 27.3383 4.65231L13.9845 8.46774C13.5746 8.58459 13.2923 8.95905 13.2923 9.38477V13.6006L7.096 17.1414C7.09046 17.1446 7.0876 17.1505 7.08177 17.1537C7.07269 17.1592 7.06222 17.1617 7.05313 17.1674C6.9677 17.2223 6.89736 17.2931 6.83474 17.3695C6.81863 17.3892 6.80569 17.4094 6.79117 17.4303C6.73369 17.5132 6.68706 17.6023 6.65822 17.6995C6.65566 17.708 6.65073 17.7155 6.64845 17.7243C6.62751 17.8035 6.61536 17.8854 6.61536 17.9694V49.4463C6.61536 49.8203 6.83425 50.1599 7.17423 50.3145L17.6666 55.0837C17.6795 55.0895 17.694 55.0872 17.707 55.0926C17.8204 55.1385 17.9387 55.1888 18.0615 55.1888C18.152 55.1888 18.242 55.1694 18.329 55.1694H18.3306L34.5461 50.3809C34.9523 50.2612 35.2307 49.8697 35.2307 49.4463V17.9694C35.2309 17.9374 35.2126 17.9097 35.2094 17.8782ZM15.2001 10.1044L26.6463 6.83388V9.61928L15.2001 12.8896V10.1044ZM13.8028 15.5057L16.1698 20.8311L9.66122 17.8725L13.8028 15.5057ZM17.1078 52.7342L8.52313 48.8322V19.4509L17.1078 23.3531V52.7342ZM15.5638 14.7696L27.2806 11.422L32.5766 17.4752L18.5941 21.5878L15.5638 14.7696ZM33.3232 48.7329L19.0155 52.9411V23.4522L33.3232 19.2442V48.7329Z" fill="#2B2B2B"/>
</g>
<path d="M36.4616 0.92308H5.53848C2.98947 0.92308 0.923096 2.98946 0.923096 5.53847V36.4615C0.923096 39.0106 2.98947 41.0769 5.53848 41.0769H36.4616C39.0106 41.0769 41.0769 39.0106 41.0769 36.4615V5.53847C41.0769 2.98946 39.0106 0.92308 36.4616 0.92308Z" stroke="#2B2B2B" stroke-width="2"/>
</g>
<defs>
<clipPath id="clip0_35_124">
<rect width="42" height="42" fill="white"/>
</clipPath>
</defs>
</svg>
